{"title":"Lepa.Sela.Lepo.Gore.aka.Pretty.Village.Pretty.Flame.1996.DVDRip.","uid":6728197,"size":728448908,"categoryP":"video","categoryS":"movies","magnet":"?xt=urn:btih:c24bfa0581ddb5a9bf8382ff5cb3e3315471acac&amp;dn=Lepa.Sela.Lepo.Gore.aka.Pretty.Village.Pretty.Flame.1996.DVDRip.&amp;tr=udp%3A%2F%2Ftracker.openbittorrent.com%3A80&amp;tr=udp%3A%2F%2Fopen.demonii.com%3A1337&amp;tr=udp%3A%2F%2Ftracker.coppersurfer.tk%3A6969&amp;tr=udp%3A%2F%2Fexodus.desync.com%3A6969","seeders":2,"leechers":0,"uploader":"neurofunk","files":3,"time":1318019656,"description":"Format                           : AVI\nFormat/Info                      : Audio Video Interleave\nFile size                        : 694 MiB\nDuration                         : 2h 9mn\nOverall bit rate                 : 750 Kbps\nWriting application              : VirtualDubMod 1.5.10.2 (build 2540/release)\nWriting library                  : VirtualDubMod build 2540/release\n\nVideo\nID                               : 0\nFormat                           : MPEG-4 Visual\nFormat profile                   : Advanced Simple@L5\nFormat settings, BVOP            : 1\nFormat settings, QPel            : No\nFormat settings, GMC             : No warppoints\nFormat settings, Matrix          : Default (H.263)\nMuxing mode                      : Packed bitstream\nCodec ID                         : DIVX\nCodec ID/Info                    : Project Mayo\nCodec ID/Hint                    : DivX 4\nDuration                         : 2h 9mn\nBit rate                         : 648 Kbps\nWidth                            : 688 pixels\nHeight                           : 384 pixels\nDisplay aspect ratio             : 16:9\nFrame rate                       : 25.000 fps\nColor space                      : YUV\nChroma subsampling               : 4:2:0\nBit depth                        : 8 bits\nScan type                        : Progressive\nCompression mode                 : Lossy\nBits/(Pixel*Frame)               : 0.098\nStream size                      : 600 MiB (86%)\nWriting library                  : XviD 63\n\nAudio\nID                               : 1\nFormat                           : MPEG Audio\nFormat version                   : Version 1\nFormat profile                   : Layer 3\nMode                             : Joint stereo\nMode extension                   : MS Stereo\nCodec ID                         : 55\nCodec ID/Hint                    : MP3\nDuration                         : 2h 9mn\nBit rate mode                    : Variable\nBit rate                         : 91.0 Kbps\nNominal bit rate                 : 96.0 Kbps\nChannel(s)                       : 2 channels\nSampling rate                    : 32.0 KHz\nCompression mode                 : Lossy\nStream size                      : 84.3 MiB (12%)\nAlignment                        : Aligned on interleaves\nInterleave, duration             : 36 ms (0.90 video frame)\nInterleave, preload duration     : 588 ms\nWriting library                  : LAME3.90.\nEncoding settings                : -m j -V 4 -q 2 -lowpass 15.4 --abr 96\n\nNote: Note: English subtitles included ;).","torrent":{"xt":"urn:btih:c24bfa0581ddb5a9bf8382ff5cb3e3315471acac","amp;dn":"Lepa.Sela.Lepo.Gore.aka.Pretty.Village.Pretty.Flame.1996.DVDRip.","amp;tr":["udp%3A%2F%2Ftracker.openbittorrent.com%3A80","udp%3A%2F%2Fopen.demonii.com%3A1337","udp%3A%2F%2Ftracker.coppersurfer.tk%3A6969","udp%3A%2F%2Fexodus.desync.com%3A6969"],"infoHash":"c24bfa0581ddb5a9bf8382ff5cb3e3315471acac","infoHashBuffer":{"type":"Buffer","data":[194,75,250,5,129,221,181,169,191,131,130,255,92,179,227,49,84,113,172,172]},"announce":[],"urlList":[]}}